HIERARCHY
ROOT Hips
{
	OFFSET	0.000000	0.000000	0.000000
	CHANNELS 6 Xposition Yposition Zposition Zrotation Xrotation Yrotation
	JOINT LeftHip
	{
		OFFSET	4.740440	-3.195970	-0.322709
		CHANNELS 3 Zrotation Xrotation Yrotation
		JOINT LeftKnee
		{
			OFFSET	-1.605680	-15.592300	1.005510
			CHANNELS 3 Zrotation Xrotation Yrotation
			JOINT LeftAnkle
			{
				OFFSET	-0.632401	-16.421000	-1.413730
				CHANNELS 3 Zrotation Xrotation Yrotation
				End Site
				{
					OFFSET	0.008423	-2.933000	-1.776750
				}
			}
		}
	}
	JOINT RightHip
	{
		OFFSET	-4.740440	-3.195970	-0.322709
		CHANNELS 3 Zrotation Xrotation Yrotation
		JOINT RightKnee
		{
			OFFSET	1.605680	-15.592300	1.005510
			CHANNELS 3 Zrotation Xrotation Yrotation
			JOINT RightAnkle
			{
				OFFSET	0.632401	-16.421000	-1.413730
				CHANNELS 3 Zrotation Xrotation Yrotation
				End Site
				{
					OFFSET	-0.008423	-2.933000	-1.776750
				}
			}
		}
	}
	JOINT Chest
	{
		OFFSET	0.000000	3.468200	0.078401
		CHANNELS 3 Zrotation Xrotation Yrotation
		JOINT LeftCollar
		{
			OFFSET	3.857650	15.070700	-0.011583
			CHANNELS 3 Zrotation Xrotation Yrotation
			JOINT LeftShoulder
			{
				OFFSET	3.979720	-1.940530	-0.165223
				CHANNELS 3 Zrotation Xrotation Yrotation
				JOINT LeftElbow
				{
					OFFSET	0.615844	-10.986600	-0.673886
					CHANNELS 3 Zrotation Xrotation Yrotation
					JOINT LeftWrist
					{
						OFFSET	0.826843	-10.854500	1.034220
						CHANNELS 3 Zrotation Xrotation Yrotation
						End Site
						{
							OFFSET	-1.679080	-8.456540	0.936217
						}
					}
				}
			}
		}
		JOINT RightCollar
		{
			OFFSET	-3.857650	15.070700	-0.011583
			CHANNELS 3 Zrotation Xrotation Yrotation
			JOINT RightShoulder
			{
				OFFSET	-3.979720	-1.940530	-0.165223
				CHANNELS 3 Zrotation Xrotation Yrotation
				JOINT RightElbow
				{
					OFFSET	-0.615845	-10.986600	-0.673886
					CHANNELS 3 Zrotation Xrotation Yrotation
					JOINT RightWrist
					{
						OFFSET	-0.826843	-10.854500	1.034220
						CHANNELS 3 Zrotation Xrotation Yrotation
						End Site
						{
							OFFSET	1.679080	-8.456540	0.936217
						}
					}
				}
			}
		}
		JOINT Neck
		{
			OFFSET	0.000000	15.101400	0.055730
			CHANNELS 3 Zrotation Xrotation Yrotation
			JOINT Head
			{
				OFFSET	0.000000	4.185120	1.488260
				CHANNELS 3 Zrotation Xrotation Yrotation
				End Site
				{
					OFFSET	0.000000	7.773420	-0.106016
				}
			}
		}
	}
}
MOTION
Frames:     19
Frame Time: 0.016667
0.249779	35.544651	4.762455	8.536874	-15.721761	26.609814	17.070637	10.722088	-4.163120	4.051148	27.434414	-10.503622	-15.189222	-23.027163	-5.393377	-26.207048	-3.579078	-8.955441	8.131944	25.216623	-4.095849	13.701601	0.451756	12.545734	-6.232889	10.350449	6.228878	-11.066203	3.450527	5.955683	10.508641	0.876676	9.338335	21.490730	-103.947449	20.114901	6.642531	-16.070587	-9.724269	-21.078655	-31.176884	32.171349	13.439025	-69.830589	28.377771	-85.500168	-104.808395	-67.659264	1.603586	-19.802143	-14.620828	-6.197020	-0.527355	-8.617649	33.387886	16.382114	-26.405111	
0.479689	35.735245	5.053967	8.711374	-14.492678	26.644537	16.106672	10.633339	-4.591661	3.411877	25.801521	-9.425792	-14.837920	-22.155384	-5.094509	-26.958664	-3.415068	-7.820015	8.497221	23.881359	-5.367960	13.928724	0.560407	12.456015	-7.450532	6.230886	4.369158	-11.506824	3.894192	7.589015	9.653118	-0.302681	10.356551	17.385460	-107.028931	13.953754	7.776737	-19.421568	-9.746468	-21.915253	-29.782005	32.248348	13.143498	-66.288879	31.696682	-95.997192	-102.888542	-78.685860	-0.700081	-20.636198	-11.718695	-7.310613	2.366951	-6.141632	33.144791	15.782882	-26.962463	
0.654017	35.759346	5.082799	8.719140	-14.211844	26.707045	15.629030	10.952321	-5.106120	3.406068	25.119144	-8.752819	-14.748574	-21.982353	-4.989077	-27.106947	-3.299991	-7.615718	8.127790	23.451080	-5.565166	14.278491	0.699665	12.532990	-7.742893	5.074197	3.781925	-12.088480	2.714513	7.312229	9.986892	0.472179	10.955099	11.682577	-111.851822	7.407057	7.025939	-16.362099	-10.290694	-22.141232	-29.336472	32.047115	12.927057	-65.197678	31.750671	-100.726242	-103.184586	-83.439384	-0.123695	-17.727875	-9.702330	-7.653993	3.422651	-5.643709	32.996170	15.561007	-26.724300	
0.864065	35.811245	5.177825	8.770852	-14.225235	26.460966	15.230036	11.332499	-5.154364	3.269100	24.699831	-8.260887	-14.638390	-21.839376	-5.045409	-27.166498	-2.819215	-6.733879	7.913788	22.718855	-6.043985	14.735780	0.823338	12.615430	-8.011239	2.756364	2.498031	-12.461634	2.939810	8.133333	8.992762	-1.409306	10.961873	9.984341	-114.345451	3.005495	7.322471	-19.398594	-11.557652	-22.628883	-28.102131	31.051895	11.795912	-62.139202	31.324375	67.450470	-75.445038	84.874687	-1.958011	-20.016062	-8.287354	-8.442410	5.082397	-3.779031	32.456341	15.299923	-26.268372	
0.971075	35.806450	5.146606	8.779246	-14.239417	26.267281	15.003716	11.521397	-4.871965	3.350668	24.579018	-8.266125	-14.744422	-21.883465	-5.155886	-27.165089	-2.808358	-6.522674	7.544041	22.489878	-5.905542	15.083167	0.988260	12.562766	-8.035556	1.674014	1.669835	-13.026854	2.340493	7.970780	9.306596	-1.019891	11.589530	8.804775	-118.714806	1.092320	7.103121	-16.768467	-12.312794	-22.336170	-27.449980	31.337530	11.372102	-61.217484	31.229296	56.984970	-73.879311	74.930290	-1.965160	-20.004284	-7.124500	-8.593868	5.356657	-2.280865	32.300797	15.337442	-26.653662	
1.073243	35.798847	5.082643	9.068462	-14.434255	25.561556	14.645820	12.068586	-3.930952	2.898539	24.679981	-8.406436	-14.411872	-22.080879	-5.152003	-27.448359	-2.928559	-6.266835	7.209248	22.421431	-5.200217	15.212845	1.105269	12.515031	-8.234838	1.113352	1.436862	-13.383330	1.753509	7.606491	9.060388	-3.945941	10.628445	8.112253	-119.404846	-1.304948	7.628442	-19.840900	-12.251307	-22.802992	-26.486832	28.834881	9.577943	-58.916031	30.072077	60.666214	-73.620476	77.969475	-1.808311	-19.917072	-6.125864	-9.363472	5.247544	-0.241007	32.229027	14.165255	-27.199797	
1.132097	35.775253	4.954550	9.297825	-14.721460	25.306467	14.576180	12.385548	-3.779295	2.598752	24.919008	-8.393141	-14.584711	-22.238653	-5.237384	-27.650087	-2.842999	-6.159177	7.000871	22.280600	-4.995799	15.358403	1.425228	12.658448	-8.286496	1.155378	1.197691	-13.568710	1.445029	7.437108	9.572160	-5.249920	10.305752	8.810283	-121.693893	-0.614534	8.179898	-18.005983	-12.686761	-22.820139	-26.144970	28.182953	8.995425	-58.238724	29.556641	60.471844	-73.228004	77.742119	-1.506556	-18.012070	-5.060385	-9.895179	6.076030	0.243225	32.212410	13.226641	-26.517618	
1.259910	35.719788	4.741832	10.069622	-15.723729	23.915651	13.979828	13.625578	-2.966344	1.896148	25.854811	-8.068991	-14.244881	-22.864595	-5.077047	-28.409935	-2.767563	-5.444749	6.949352	22.297997	-4.041720	15.412242	1.959375	12.925731	-8.259890	1.808689	1.075832	-14.060906	0.444702	6.902792	10.626721	-5.679237	11.356544	9.632413	-123.317970	0.220799	8.512766	-20.272160	-11.739268	-22.868099	-25.279495	26.288958	7.050725	-56.321686	27.875982	61.236664	-72.716255	78.361923	-1.634462	-19.578030	-5.224575	-11.219352	8.387535	0.423508	31.442486	10.997189	-23.365896	
1.314753	35.702732	4.587255	10.183425	-16.065310	23.147503	13.811697	13.899055	-2.602518	1.703096	26.374983	-7.682286	-14.328840	-23.128674	-5.164835	-28.553518	-2.894890	-5.023416	6.897486	21.906023	-3.908399	15.465198	2.565746	13.151913	-8.103370	2.038183	1.275712	-14.230477	0.085354	6.739273	11.592070	-6.878049	10.781041	8.888299	-122.978470	-0.415608	8.604877	-20.232767	-11.925856	-22.853418	-24.974346	25.674940	6.319631	-55.792912	27.359709	49.859436	-72.789429	67.195541	-0.716766	-22.697250	-5.249303	-11.089009	8.519300	0.143385	30.721699	10.955827	-22.405556	
1.456215	35.628403	4.376203	10.065327	-16.432707	22.303770	13.721252	13.516716	-3.266161	0.938066	27.831915	-5.898665	-14.333607	-23.640001	-5.470389	-28.796450	-3.095611	-5.516041	6.870565	21.588768	-2.729118	15.513504	3.195608	13.288098	-7.400375	2.325935	0.186387	-14.603313	-0.975106	6.210444	12.860420	-7.279803	11.576926	11.461537	-124.991425	2.228099	8.646122	-19.869518	-13.041391	-22.773582	-24.136614	23.696970	4.399129	-54.020660	26.314405	56.101795	-74.040611	72.366714	-1.867921	-20.534262	-5.485426	-11.285336	8.389447	1.311613	29.694784	10.420201	-21.433165	
1.520013	35.609787	4.325372	9.875132	-16.681381	21.348383	13.726156	13.694667	-2.834968	0.723634	28.159138	-5.356487	-14.416489	-23.761393	-5.542136	-28.651892	-3.399036	-5.023581	6.882191	21.353579	-2.434619	15.527568	3.516985	13.327423	-7.067363	2.377128	0.497505	-14.599267	-1.197348	6.001439	14.014786	-8.100715	10.792603	10.449061	-124.406036	1.670420	8.674402	-19.744396	-13.345997	-22.585070	-23.775719	23.062563	3.791094	-53.370960	25.928448	49.451767	-74.859299	65.739281	-1.182357	-21.988476	-5.526195	-10.858768	8.808873	1.261127	28.854292	10.114629	-20.577488	
1.615929	35.567612	4.078304	9.652886	-16.781406	20.242853	13.559881	13.628388	-2.913852	0.067995	28.642569	-4.181945	-14.208284	-23.939718	-5.349197	-28.679920	-3.937643	-4.954769	6.792702	20.587997	-1.847323	15.623612	4.556067	13.454926	-6.429527	2.406455	-0.242103	-14.411786	-1.626958	5.331190	14.976482	-8.326580	11.385809	13.374204	-125.374146	5.486902	9.171157	-19.412853	-13.296412	-22.009283	-22.475180	21.186991	1.897268	-51.602741	24.275345	57.834171	-75.804459	73.518623	-2.964307	-20.033062	-5.208172	-10.907530	8.842853	2.002063	27.767069	9.950940	-19.135986	
1.669889	35.571323	4.064411	9.415163	-16.715088	19.173607	13.393950	13.629902	-2.169403	-0.068771	28.701923	-3.936235	-14.084633	-23.932018	-5.178447	-28.489628	-4.511651	-4.360854	6.710485	20.264034	-1.741082	15.681514	4.932888	13.525567	-6.173438	2.198342	0.100239	-14.178235	-1.645349	5.157930	16.001783	-8.703231	10.233909	11.724429	-124.858467	4.559844	9.413555	-19.299109	-12.991462	-21.773445	-21.951555	20.630383	1.247375	-51.037479	23.520750	58.620796	-76.206192	74.223045	-3.237636	-19.898157	-5.083489	-10.692045	8.933072	2.052254	27.192688	9.952465	-18.444159	
1.739635	35.561638	3.839548	9.149325	-16.526585	18.291864	12.873740	13.441808	-1.985339	-0.114348	28.722858	-3.343467	-13.847974	-23.905272	-4.763626	-28.309546	-5.016934	-4.401898	6.301055	19.197956	-1.459045	15.885811	6.063161	13.727582	-5.805881	2.019646	-1.041614	-13.299647	-1.582123	4.574472	16.529327	-8.929696	10.716687	14.442128	-125.361488	8.528676	10.202519	-18.917414	-11.520552	-21.114302	-20.383528	18.880266	-1.475624	-47.661247	18.851236	71.147926	-76.521660	86.281891	-4.484425	-19.419436	-4.832838	-10.011440	9.340142	1.976696	25.412092	9.959504	-16.130648	
1.763731	35.565716	3.785444	9.008329	-16.421209	17.915922	12.736645	13.355560	-1.805381	-0.129997	28.667166	-3.130881	-13.786860	-23.838192	-4.678793	-28.148788	-5.224306	-4.326486	6.089741	18.791306	-1.427087	15.993824	6.445409	13.828300	-5.652902	1.960135	-1.319512	-13.009373	-1.618323	4.350785	16.883072	-9.050816	10.521553	14.664129	-125.316063	9.242767	10.493618	-18.788649	-10.968937	-20.983934	-19.872211	18.199127	-2.892992	-45.397629	15.949602	-98.781700	-104.205681	-83.888191	-5.002458	-19.225565	-4.823521	-9.742327	9.477338	1.916451	24.797798	9.893435	-15.375755	
1.794098	35.592819	3.634871	8.638995	-16.207075	16.885447	12.426263	13.073584	-1.280836	-0.033498	28.586693	-2.661522	-13.784026	-23.617081	-4.476584	-27.616209	-5.635573	-3.901601	5.568571	17.461824	-1.433680	16.286827	7.567642	13.955942	-5.227481	2.090523	-2.090015	-12.243035	-1.852794	3.640056	17.924505	-9.555739	9.935027	15.478196	-125.141556	11.302514	11.554781	-18.475414	-9.655680	-20.691032	-18.310766	16.209414	-2.639753	-44.872253	16.344149	-101.755569	-102.075546	-87.235626	-6.760705	-18.728825	-5.042269	-8.883801	9.981376	1.596671	22.966978	9.341290	-12.945086	
1.786834	35.605499	3.594160	8.524596	-16.143610	16.566576	12.350706	12.991368	-1.113721	-0.005955	28.537096	-2.538067	-13.797423	-23.533363	-4.409735	-27.397802	-5.760100	-3.682668	5.401720	17.042290	-1.417807	16.374580	7.883565	13.881052	-5.099439	2.250656	-2.319409	-12.014083	-1.985929	3.350209	18.257393	-9.765721	9.772750	15.735510	-125.094612	11.896235	11.942186	-18.425690	-9.453031	-20.620899	-17.873142	15.528495	-3.968612	-42.356411	13.919152	-89.762306	-102.612366	-75.440323	-7.321827	-18.576504	-5.092658	-8.622304	10.158372	1.429961	22.399693	8.991211	-12.084556	
1.716562	35.637409	3.489656	8.101296	-15.743260	15.688275	12.235888	12.546693	-0.571006	0.074504	28.271627	-2.307572	-13.797616	-23.203194	-4.171050	-26.569046	-6.416870	-3.069795	4.793862	16.003548	-1.248682	16.564760	8.704039	13.419380	-4.605410	2.796848	-2.859962	-11.350032	-2.500597	2.316452	18.873289	-10.446054	9.385232	16.684170	-125.183052	13.604419	13.059189	-18.351385	-9.288571	-20.599709	-16.481787	13.409750	-3.925241	-41.789906	14.300023	-88.349113	-99.980042	-74.414421	-8.805083	-18.130352	-5.116876	-8.087042	10.609117	0.478621	20.995905	7.832612	-9.259295	
1.678804	35.649937	3.460226	7.958281	-15.615235	15.448847	12.264813	12.395204	-0.474452	-0.119212	27.865793	-2.205310	-13.600068	-22.797451	-3.925436	-26.241434	-6.603440	-2.864666	4.557430	15.668702	-1.205761	16.627172	8.966551	13.244489	-4.326373	3.567647	-3.374969	-11.252633	-3.258043	2.135794	19.075447	-10.697980	9.313272	17.065630	-125.263443	14.266033	13.465162	-18.349609	-9.301087	-20.631002	-16.592506	12.881184	-4.947949	-39.229149	12.405852	-78.600555	-99.031593	-65.015808	-9.732990	-17.821978	-5.168333	-7.643131	10.365031	-0.229794	20.155649	7.412307	-7.783147	
